<?xml version="1.0" encoding="utf-8"?>
<!-- Generator: Adobe Illustrator 15.0.0, SVG Export Plug-In . SVG Version: 6.00 Build 0)  -->
<!DOCTYPE svg PUBLIC "-//W3C//DTD SVG 1.1//EN" "http://www.w3.org/Graphics/SVG/1.1/DTD/svg11.dtd">
<svg version="1.1"
	 id="Layer_1" xmlns:dc="http://purl.org/dc/elements/1.1/" xmlns:cc="http://creativecommons.org/ns#" xmlns:rdf="http://www.w3.org/1999/02/22-rdf-syntax-ns#" xmlns:svg="http://www.w3.org/2000/svg"
	 xmlns="http://www.w3.org/2000/svg" xmlns:xlink="http://www.w3.org/1999/xlink" x="0px" y="0px" width="510px" height="490px"
	 viewBox="0 0 510 490" enable-background="new 0 0 510 490" xml:space="preserve">
<path fill="#FFFFFF" stroke="#000000" stroke-width="12.5" d="M128.498,221.561c-19.138-18.603-32.512-50.888-34.366-85.752
	c-2.015-38.42,18.218-76.57,48.537-98.319c33.969-23.909,90.766-30.522,126.082-28.737c23.921,0.017,77.204,12.42,96.015,26.428
	c32.994,23.99,50.688,58.04,51.914,96.85c1.813,38.983-14.606,68.675-34.711,87.206"/>
<path fill="#FFFFFF" d="M130.4,215c0,0-23.13,70.03,21.44,81.97l16.25,93.66c17.148,73.72,154.398,73.771,174.6,0l16.25-93.66
	c45.7-12.2,22.5-82,22.5-82L130.4,215z"/>
<path fill="none" stroke="#000000" stroke-width="12.5" d="M129.662,112.267c-7.752,6.782-6.774,16.977-5.378,32.192
	c1.102,11.56,8.478,22.939,8.864,33.5c2.712,22.285-3.876,44.57-6.977,62.786c-2.132,20.928,3.877,38.95,11.628,45.926
	c7.751,6.88,17.756,9.729,28.268,12.937c9.553,2.498,14.504,6.843,21.729,12.229c8.604,9.139,10.659,16.693,10.465,25.996"/>
<path fill="none" stroke="#000000" stroke-width="12.5" d="M382.061,111.686c7.752,6.782,6.773,16.977,5.378,32.192
	c-1.103,11.56-8.479,22.939-8.866,33.5c-2.712,22.285,3.876,44.57,6.978,62.786c2.133,20.928-3.877,38.95-11.628,45.926
	c-7.751,6.88-21.938,10.574-28.269,12.936c-7.377,2.582-14.92,7.259-21.728,12.646c-8.19,7.888-10.659,16.277-10.466,25.58"/>
<path fill="none" stroke="#000000" stroke-width="12.5" d="M151.821,296.959c6.938,16.79,14.292,33.164,14.986,50.37
	c-3.189,13.876-2.22,30.25,1.249,43.294c4.441,17.9,21.786,39.13,39.132,46.207c17.762,6.452,28.862,8.118,48.704,8.118"/>
<path fill="none" stroke="#000000" stroke-width="12.5" d="M358.922,296.959c-6.938,16.79-14.292,33.164-14.985,50.37
	c3.19,13.876,2.22,30.25-1.249,43.294c-4.441,17.9-21.994,38.506-39.34,45.583c-17.345,7.077-28.445,8.742-48.288,8.742"/>
<path stroke="#000000" d="M251.895,245.711c-9.694,7.373-11.853,9.85-17.211,18.008c-1.938,3.149-5.56,10.508-6.55,15.445
	c-0.989,4.936-1.73,12.098-1.729,15.891c0.014,12.854,4.104,20.916,8.571,20.635c3.992-0.457,9.072-4.621,16.771-14.074"/>
<path stroke="#000000" d="M258.877,245.919c9.694,7.373,11.853,9.849,17.211,18.009c1.938,3.148,5.56,10.508,6.55,15.444
	c0.989,4.937,1.73,12.099,1.727,15.892c-0.012,12.854-4.103,20.916-8.569,20.635c-3.992-0.459-9.072-4.621-16.771-14.075"/>
<path stroke="#000000" d="M169.477,189.561c13.46-2.359,26.503-3.885,39.963-5.411c17.623-4.441,26.504,15.68,21.647,30.805
	c-6.105,13.46-14.708,25.255-24.562,36.633c-7.632,8.604-16.724,9.995-25.394,7.076c-6.998-1.939-13.461-6.243-20.399-16.234
	c-3.052-8.604-5.688-13.045-9.573-23.729C148.108,208.849,152.855,194.101,169.477,189.561z"/>
<path stroke="#000000" d="M341.559,189.561c-13.46-2.359-26.503-3.885-39.963-5.411c-17.623-4.441-26.504,15.68-21.647,30.805
	c6.105,13.46,14.708,25.255,24.562,36.633c7.632,8.604,16.724,9.995,25.394,7.076c6.998-1.939,13.461-6.243,20.398-16.234
	c3.053-8.604,5.688-13.045,9.574-23.729C362.928,208.849,358.181,194.101,341.559,189.561z"/>
<path fill="none" stroke="#000000" stroke-width="6.25" d="M169.232,304.53c5.69,13.344,7.45,18.415,11.555,31.718
	c3.494,12.289,4.779,19.794,6.939,37.258"/>
<path fill="none" stroke="#000000" stroke-width="6.25" d="M341.086,303.794c-5.69,13.345-7.45,18.415-11.554,31.718
	c-3.496,12.289-4.78,19.795-6.94,37.258"/>
<path fill="none" stroke="#000000" stroke-width="5" d="M193.516,335.732c14.718,9.025,40.161,10.418,62.956,10.009
	c25.396-0.13,47.133-1.964,61.409-10.597"/>
<path fill="none" stroke="#000000" stroke-width="5" d="M198.667,359.282c16.236,10.204,35.334,13.708,57.326,12.878
	c22.842-0.557,40.351-2.479,55.999-13.172"/>
<path fill="none" stroke="#000000" stroke-width="6.25" d="M186.893,371.645c17.367,20.947,41.608,24.584,69.173,25.314
	c29.521,1.077,59.166-10.645,66.819-25.314"/>
<path stroke="#000000" stroke-width="5" d="M198.444,340.256l-0.416,41.212"/>
<path stroke="#000000" stroke-width="5" d="M211.973,344.627l-0.208,44.126"/>
<path stroke="#000000" stroke-width="5" d="M226.959,346.5l-0.416,46.208"/>
<path stroke="#000000" stroke-width="5" d="M240.489,347.541l-0.209,46.832"/>
<path stroke="#000000" stroke-width="5" d="M255.683,347.957v46.832"/>
<path stroke="#000000" stroke-width="5" d="M270.253,347.749l0.208,46.832"/>
<path stroke="#000000" stroke-width="5" d="M283.365,346.5l0.416,46"/>
<path stroke="#000000" stroke-width="5" d="M298.56,344.003l0.208,44.126"/>
<path stroke="#000000" stroke-width="5" d="M312.297,338.591l0.417,41.628"/>
<g>
	<circle fill="#FFFFFF" cx="190.939" cy="219.845" r="30.297"/>
	<circle fill="#898989" cx="190.939" cy="223.689" r="14.736"/>
	<ellipse fill="#050505" cx="190.939" cy="223.689" rx="4.328" ry="3.846"/>
</g>
<g>
	<circle fill="#FFFFFF" cx="322.885" cy="219.845" r="30.297"/>
	<circle fill="#898989" cx="322.885" cy="223.689" r="14.736"/>
	<ellipse fill="#050505" cx="322.885" cy="223.689" rx="4.328" ry="3.846"/>
</g>
<g>
	<path opacity="0.48" fill="#3F3F3F" enable-background="new    " d="M123.341,168.761c26.479-1.531,51.964-1.552,78.255-1.477
		c34.97-4.613,47.583,36.167,34.831,64.239c-14.787,24.581-34.014,45.391-55.559,65.12c-16.64,14.875-34.48,15.521-50.54,7.951
		c-13.057-5.307-24.552-15.053-35.689-35.869c-3.956-17.27-8.042-26.423-13.141-47.89C77.823,201.158,90.279,173.79,123.341,168.761
		z"/>
	<path d="M150.348,311.35c-6.869,0-13.876-1.656-20.822-4.924c-15.02-6.119-26.323-17.457-36.65-36.758l-0.126-0.236l-0.06-0.262
		c-1.916-8.363-3.877-14.857-5.954-21.734c-2.242-7.42-4.56-15.094-7.184-26.139c-2.107-11.268,0.862-23.874,7.923-33.815
		c5.555-7.819,16.232-17.758,35.565-20.698l0.185-0.02c22.846-1.321,44.674-1.503,64.859-1.503c4.445,0,8.903,0.01,13.385,0.022
		c1.851-0.238,3.686-0.359,5.457-0.359c11.989,0,22.21,5.619,28.781,15.822c9.113,14.149,10.134,34.887,2.54,51.604l-0.107,0.204
		c-13.116,21.806-30.887,42.64-55.922,65.563C172.391,306.904,161.674,311.35,150.348,311.35z M96.529,268.016
		c9.832,18.297,20.496,29.012,34.553,34.727l0.1,0.043c6.427,3.029,12.875,4.564,19.167,4.564c10.313,0,20.134-4.104,29.188-12.197
		c24.688-22.607,42.21-43.129,55.118-64.561c6.893-15.271,5.949-34.86-2.309-47.679c-4.109-6.381-11.855-13.988-25.418-13.988
		c-1.641,0-3.346,0.115-5.067,0.342l-0.133,0.018h-0.135c-4.522-0.013-9.021-0.023-13.506-0.023
		c-20.097,0-41.825,0.181-64.534,1.491c-17.888,2.747-27.717,11.87-32.813,19.046c-6.446,9.075-9.165,20.541-7.272,30.669
		c2.576,10.833,4.875,18.448,7.101,25.812C92.639,253.152,94.601,259.646,96.529,268.016z"/>
	<path opacity="0.48" fill="#3F3F3F" enable-background="new    " d="M372.816,169.618c-26.461-1.802-51.945-2.083-78.235-2.277
		c-34.921-4.97-47.95,35.68-35.485,63.879c14.534,24.731,33.548,45.737,54.889,65.685c16.488,15.045,34.32,15.873,50.457,8.467
		c13.11-5.172,24.704-14.801,36.053-35.5c4.134-17.229,8.313-26.34,13.63-47.753C418.001,202.479,405.825,174.984,372.816,169.618z"
		/>
	<path d="M344.791,311.926L344.791,311.926c-11.489-0.002-22.309-4.557-32.155-13.543c-24.816-23.195-42.372-44.21-55.266-66.149
		l-0.104-0.205c-7.382-16.7-6.194-37.356,2.953-51.402c6.596-10.125,16.771-15.702,28.652-15.702c1.9,0,3.869,0.14,5.855,0.417
		c27.477,0.204,52.333,0.518,78.226,2.28l0.186,0.021c19.302,3.138,29.877,13.185,35.352,21.062
		c6.959,10.013,9.799,22.649,7.596,33.8c-2.758,11.117-5.154,18.769-7.473,26.168c-2.146,6.853-4.174,13.323-6.176,21.665
		l-0.062,0.26l-0.129,0.234c-10.522,19.193-21.941,30.416-37.021,36.379C358.394,310.34,351.519,311.926,344.791,311.926z
		 M260.878,230.307c12.688,21.563,29.998,42.262,54.471,65.137c9.071,8.275,18.982,12.48,29.441,12.48
		c6.166,0,12.496-1.471,18.815-4.371l0.101-0.043c14.114-5.566,24.888-16.174,34.903-34.367c2.014-8.347,4.039-14.818,6.186-21.666
		c2.3-7.343,4.679-14.936,7.386-25.842c1.977-10.014-0.625-21.507-6.977-30.647c-5.023-7.229-14.758-16.452-32.617-19.381
		c-25.787-1.753-50.594-2.063-78.021-2.266l-0.269-0.02c-1.846-0.263-3.672-0.396-5.427-0.396c-13.438,0-21.176,7.551-25.301,13.885
		C255.15,195.739,254.072,214.813,260.878,230.307z"/>
	<g>
		<path d="M236.194,195.257c-0.199-1.278-0.052-3.685,3.172-5.451c5.093-2.79,16.218-2.636,19.517,0.271l-2.646,3
			c-1.746-1.539-10.917-1.972-14.949,0.237c-1.242,0.681-1.167,1.167-1.142,1.328L236.194,195.257z"/>
	</g>
	<path opacity="0.66" fill="#F4F4F4" enable-background="new    " d="M130.448,183.864c-8.167,5.5-14.801,6.488-16.5,15.25
		c-0.925,4.771-1.67,10.297-1.333,15.25"/>
	<path opacity="0.66" fill="#F4F4F4" enable-background="new    " d="M282.053,177.002c-4.487,4.618-7.677,5.112-9.614,13.205
		c-1.057,4.407-2.128,9.53-2.625,14.189"/>
</g>
</svg>
